Simulation
nRows=24
nColumns=15
endheader
time  TH_x TH_y TH_z SC_y  SC_z  SC_x  AC_y  AC_z  AC_x  GH_y  GH_z  GH_yy  EL_x  PS_y
1.55  0.000000  0.000000  0.000000  -36.862891189814704  13.656568972917913  27.196173004879572  52.21580384004636  10.073177501684945  7.925845486172799  -28.666453656018763  59.56683181111317  29.590177314555977  6.833556129909906  120.000000
1.581  0.000000  0.000000  0.000000  -37.04382139357015  13.70036197083082  27.78734641404181  52.270147784014696  9.917121934058404  7.958294893064975  -28.808333531156997  59.75054004955753  29.99883719422358  6.946496415396856  120.000000
1.612  0.000000  0.000000  0.000000  -37.22039098903457  13.708894475430125  28.325505206046646  52.34964594694354  9.769270305638798  7.9639180565069525  -28.974110611587655  59.88154169322467  30.440518246699096  7.057182492121067  120.000000
1.643  0.000000  0.000000  0.000000  -37.39754395867293  13.675252152693268  28.813838194852515  52.45542964881084  9.64055677171252  7.942905472311092  -29.15535325159962  59.96510569066321  30.89176846059167  7.158179741177629  120.000000
1.674  0.000000  0.000000  0.000000  -37.57824095781484  13.597245585876548  29.252536673807228  52.5860554514568  9.537811240617945  7.896250522140365  -29.342268507963507  60.008262978038424  31.331442953880085  7.242890433964753  120.000000
1.705  0.000000  0.000000  0.000000  -37.76267508178712  13.478472263080063  29.63843342985211  52.73741679221276  9.463115793917156  7.825695684125595  -29.524239216207416  60.019307178395096  31.74187979025377  7.305632649632569  120.000000
1.736  0.000000  0.000000  0.000000  -37.94807273084848  13.32792460040234  29.965948359578384  52.902757763662414  9.414361339915935  7.733887104054347  -29.69052572021416  60.00707627347866  32.10867993783205  7.342015197497465  120.000000
1.767  0.000000  0.000000  0.000000  -38.12882601943952  13.158857925591684  30.228666057744604  53.072872201423955  9.386309856674437  7.62454854754761  -29.8312436005505  59.97982745278806  32.42003855435005  7.34925455672593  120.000000
1.798  0.000000  0.000000  0.000000  -38.296993815494076  12.986965920790897  30.421151997843292  53.23653272317612  9.371897917850658  7.502470810217724  -29.93834519139983  59.944316284015905  32.6658687344209  7.326893029431193  120.000000
1.829  0.000000  0.000000  0.000000  -38.44292532247298  12.828583923596034  30.54034414260619  53.38123640911577  9.363310360513069  7.373260425095741  -30.006547631400764  59.90472459123652  32.83743816726455  7.2772736694115085  120.000000
1.8599999999999999  0.000000  0.000000  0.000000  -38.55608597338779  12.698874788760062  30.586389405892664  53.494295100171215  9.352820625921128  7.242740365714072  -30.033850796860524  59.86193321172074  32.9274883238436  7.205758299671226  120.000000
1.891  0.000000  0.000000  0.000000  -38.62594841768567  12.610582813826861  30.56238593002364  53.56433389565218  9.333124958447064  7.116007998174992  -30.021569885288464  59.812755960070284  32.931137746708224  7.120049466590668  120.000000
1.922  0.000000  0.000000  0.000000  -38.64297552308337  12.572921648485476  30.47351246549899  53.58285060753259  9.297455137997883  6.9964508865282005  -29.97387682857293  59.749571806319246  32.847024234571855  7.0292547981923486  120.000000
1.953  0.000000  0.000000  0.000000  -38.599537400690444  12.590988242166357  30.325327769229194  53.54575875006422  9.239368269927818  6.884781151335506  -29.897011445946756  59.65997859377592  32.67849403872802  6.942689904960519  120.000000
1.984  0.000000  0.000000  0.000000  -38.49073335478343  12.665223602951054  30.1220856995856  53.45436140141417  9.152631129399044  6.778526282529798  -29.798255363543742  59.5270104208078  32.43408461722002  6.869086809008938  120.000000
2.015  0.000000  0.000000  0.000000  -38.3148846710021  12.79131295702406  29.865213970145273  53.31556007149217  9.031252392188946  6.672020974748385  -29.684791916429496  59.32962149902667  32.126912194758475  6.816031694904511  120.000000
2.046  0.000000  0.000000  0.000000  -38.073716358267845  12.960181803433374  29.552809522073396  53.1409944443626  8.870101335903541  6.55708530089674  -29.562603930754292  59.043826178973546  31.772472959179023  6.790153505214241  120.000000
2.077  0.000000  0.000000  0.000000  -37.77212025323424  13.1583290827703  29.18003720013318  52.945196570255966  8.665820182589984  6.4243256960522945  -29.43542859115802  58.644090373719266  31.38540983119383  6.797536556411666  120.000000
2.108  0.000000  0.000000  0.000000  -37.41789617052607  13.36839478661959  28.74034188491545  52.74326558181264  8.41785309992098  6.264608946072871  -29.303761009692444  58.105291201270965  30.975915821897853  6.844521755321814  120.000000
2.139  0.000000  0.000000  0.000000  -37.02129425486096  13.570144982404333  28.227055182172496  52.548394648645385  8.129296445687384  6.070488301853035  -29.16418964871794  57.40448712249052  30.547077852380028  6.93813475298473  120.000000
2.17  0.000000  0.000000  0.000000  -36.59462942615224  13.741697728173696  27.634492152570612  52.37013160871392  7.807111776857679  5.836767355700057  -29.009447655224953  56.522429915919055  30.094246733091104  7.086231255168136  120.000000
2.201  0.000000  0.000000  0.000000  -36.1516084892575  13.861058639117466  26.958356838495327  52.21322129454862  7.461269192937035  5.560877864540958  -28.82913490541343  55.44476710553311  29.607521967882168  7.296414636312138  120.000000
2.232  0.000000  0.000000  0.000000  -35.706489843666645  13.908161066276005  26.195681101225375  52.07765264844941  7.103491483664725  5.24291329143817  -28.610382567771374  54.163935903023564  29.076610403773035  7.574449786794002  120.000000
2.263  0.000000  0.000000  0.000000  -35.27263932747172  13.867083062117077  25.345016587226397  51.959297758497925  6.745860915085808  4.88593316854026  -28.338931784648693  52.68083430043669  28.497251113286275  7.92139451538377  120.000000
